<svg width="470" height="318" viewBox="0 0 470 318" fill="none" xmlns="http://www.w3.org/2000/svg">
<path d="M41.1818 219.364V205.455L102.545 108.364H112.636V129.909H105.818L59.4545 203.273V204.364H142.091V219.364H41.1818ZM106.909 248V215.136V208.659V108.364H123V248H106.909ZM357.329 219.364V205.455L418.693 108.364H428.784V129.909H421.966L375.602 203.273V204.364H458.238V219.364H357.329ZM423.057 248V215.136V208.659V108.364H439.147V248H423.057Z" fill="white"/>
<g filter="url(#filter0_d_82_37)">
<ellipse cx="251.5" cy="187" rx="44.5" ry="52" stroke="#C889EF" stroke-width="11" shape-rendering="crispEdges"/>
</g>
<g filter="url(#filter1_d_82_37)">
<circle cx="373.101" cy="281.101" r="17.2285" transform="rotate(-15 373.101 281.101)" fill="#F5BC2A"/>
</g>
<g filter="url(#filter2_d_82_37)">
<path d="M30.8807 25.9374C31.0725 23.636 33.6837 22.4052 35.5809 23.722L76.2994 51.9828C78.1966 53.2996 77.9569 56.1764 75.8679 57.1611L31.0341 78.2939C28.9451 79.2785 26.5736 77.6326 26.7653 75.3311L30.8807 25.9374Z" fill="#FF6767"/>
</g>
<g filter="url(#filter3_d_82_37)">
<path d="M213.625 255.669C215.897 255.258 217.762 257.462 216.982 259.635L213.02 270.666C212.24 272.84 209.399 273.353 207.907 271.59L200.335 262.644C198.843 260.881 199.818 258.165 202.091 257.754L213.625 255.669Z" fill="#43BCEA"/>
</g>
<g filter="url(#filter4_d_82_37)">
<rect x="296" y="82.3719" width="30.32" height="30.3172" rx="3" transform="rotate(-24.082 296 82.3719)" fill="#82CFC2"/>
</g>
<defs>
<filter id="filter0_d_82_37" x="178.8" y="106.8" width="145.4" height="160.4" filterUnits="userSpaceOnUse" color-interpolation-filters="sRGB">
<feFlood flood-opacity="0" result="BackgroundImageFix"/>
<feColorMatrix in="SourceAlpha" type="matrix" values="0 0 0 0 0 0 0 0 0 0 0 0 0 0 0 0 0 0 127 0" result="hardAlpha"/>
<feOffset/>
<feGaussianBlur stdDeviation="11.35"/>
<feComposite in2="hardAlpha" operator="out"/>
<feColorMatrix type="matrix" values="0 0 0 0 0.784314 0 0 0 0 0.537255 0 0 0 0 0.937255 0 0 0 0.61 0"/>
<feBlend mode="normal" in2="BackgroundImageFix" result="effect1_dropShadow_82_37"/>
<feBlend mode="normal" in="SourceGraphic" in2="effect1_dropShadow_82_37" result="shape"/>
</filter>
<filter id="filter1_d_82_37" x="336.968" y="244.968" width="72.2656" height="72.2656" filterUnits="userSpaceOnUse" color-interpolation-filters="sRGB">
<feFlood flood-opacity="0" result="BackgroundImageFix"/>
<feColorMatrix in="SourceAlpha" type="matrix" values="0 0 0 0 0 0 0 0 0 0 0 0 0 0 0 0 0 0 127 0" result="hardAlpha"/>
<feOffset/>
<feGaussianBlur stdDeviation="9.45"/>
<feComposite in2="hardAlpha" operator="out"/>
<feColorMatrix type="matrix" values="0 0 0 0 0.960784 0 0 0 0 0.737255 0 0 0 0 0.164706 0 0 0 0.61 0"/>
<feBlend mode="normal" in2="BackgroundImageFix" result="effect1_dropShadow_82_37"/>
<feBlend mode="normal" in="SourceGraphic" in2="effect1_dropShadow_82_37" result="shape"/>
</filter>
<filter id="filter2_d_82_37" x="4.05439" y="0.482647" width="96.2347" height="100.802" filterUnits="userSpaceOnUse" color-interpolation-filters="sRGB">
<feFlood flood-opacity="0" result="BackgroundImageFix"/>
<feColorMatrix in="SourceAlpha" type="matrix" values="0 0 0 0 0 0 0 0 0 0 0 0 0 0 0 0 0 0 127 0" result="hardAlpha"/>
<feOffset/>
<feGaussianBlur stdDeviation="11.35"/>
<feComposite in2="hardAlpha" operator="out"/>
<feColorMatrix type="matrix" values="0 0 0 0 1 0 0 0 0 0.403922 0 0 0 0 0.403922 0 0 0 0.61 0"/>
<feBlend mode="normal" in2="BackgroundImageFix" result="effect1_dropShadow_82_37"/>
<feBlend mode="normal" in="SourceGraphic" in2="effect1_dropShadow_82_37" result="shape"/>
</filter>
<filter id="filter3_d_82_37" x="176.922" y="232.919" width="62.941" height="62.4339" filterUnits="userSpaceOnUse" color-interpolation-filters="sRGB">
<feFlood flood-opacity="0" result="BackgroundImageFix"/>
<feColorMatrix in="SourceAlpha" type="matrix" values="0 0 0 0 0 0 0 0 0 0 0 0 0 0 0 0 0 0 127 0" result="hardAlpha"/>
<feOffset/>
<feGaussianBlur stdDeviation="11.35"/>
<feComposite in2="hardAlpha" operator="out"/>
<feColorMatrix type="matrix" values="0 0 0 0 0.262745 0 0 0 0 0.737255 0 0 0 0 0.917647 0 0 0 0.61 0"/>
<feBlend mode="normal" in2="BackgroundImageFix" result="effect1_dropShadow_82_37"/>
<feBlend mode="normal" in="SourceGraphic" in2="effect1_dropShadow_82_37" result="shape"/>
</filter>
<filter id="filter4_d_82_37" x="274.262" y="48.2623" width="83.5274" height="83.5258" filterUnits="userSpaceOnUse" color-interpolation-filters="sRGB">
<feFlood flood-opacity="0" result="BackgroundImageFix"/>
<feColorMatrix in="SourceAlpha" type="matrix" values="0 0 0 0 0 0 0 0 0 0 0 0 0 0 0 0 0 0 127 0" result="hardAlpha"/>
<feOffset/>
<feGaussianBlur stdDeviation="11.35"/>
<feComposite in2="hardAlpha" operator="out"/>
<feColorMatrix type="matrix" values="0 0 0 0 0.509804 0 0 0 0 0.811765 0 0 0 0 0.760784 0 0 0 0.61 0"/>
<feBlend mode="normal" in2="BackgroundImageFix" result="effect1_dropShadow_82_37"/>
<feBlend mode="normal" in="SourceGraphic" in2="effect1_dropShadow_82_37" result="shape"/>
</filter>
</defs>
</svg>
