<svg width="36" height="36" viewBox="0 0 36 36" fill="none" xmlns="http://www.w3.org/2000/svg">
<g clip-path="url(#clip0_51_6)">
<path d="M33.4286 20.5714H20.5714V33.4286C20.5714 34.8429 19.4143 36 18 36C16.5857 36 15.4286 34.8429 15.4286 33.4286V20.5714H2.57143C1.15714 20.5714 0 19.4143 0 18C0 16.5857 1.15714 15.4286 2.57143 15.4286H15.4286V2.57143C15.4286 1.15714 16.5857 0 18 0C19.4143 0 20.5714 1.15714 20.5714 2.57143V15.4286H33.4286C34.8429 15.4286 36 16.5857 36 18C36 19.4143 34.8429 20.5714 33.4286 20.5714Z" fill="#201C1C"/>
</g>
<defs>
<clipPath id="clip0_51_6">
<rect width="36" height="36" fill="white"/>
</clipPath>
</defs>
</svg>
