<svg width="32" height="32" viewBox="0 0 32 32" fill="none" xmlns="http://www.w3.org/2000/svg">
<path d="M27 3H25V2C25 1.447 24.553 1 24 1C23.447 1 23 1.447 23 2V3H9V2C9 1.447 8.553 1 8 1C7.447 1 7 1.447 7 2V3H5C3.346 3 2 4.346 2 6V27C2 28.654 3.346 30 5 30H27C28.654 30 30 28.654 30 27V6C30 4.346 28.654 3 27 3ZM28 27C28 27.552 27.552 28 27 28H5C4.448 28 4 27.552 4 27V11H28V27ZM28 9H4V6C4 5.448 4.448 5 5 5H7V6C7 6.553 7.447 7 8 7C8.553 7 9 6.553 9 6V5H23V6C23 6.553 23.447 7 24 7C24.553 7 25 6.553 25 6V5H27C27.552 5 28 5.448 28 6V9ZM8.735 19.479L11 20.378V24.071C11 24.44 11.203 24.779 11.529 24.953C13.26 25.877 14.916 26.071 16 26.071C17.967 26.071 19.517 25.463 20.472 24.953C20.797 24.779 21 24.44 21 24.071V20.379L22.5 19.783V23.071C22.5 23.624 22.947 24.071 23.5 24.071C24.053 24.071 24.5 23.624 24.5 23.071V18.071C24.5 18.057 24.492 18.045 24.492 18.031C24.527 17.88 24.561 17.729 24.562 17.569C24.562 16.721 24.053 15.971 23.265 15.657L16.76 13.074C16.269 12.878 15.729 12.881 15.241 13.074L8.734 15.659C7.947 15.972 7.438 16.722 7.438 17.57C7.438 18.418 7.948 19.167 8.735 19.479ZM19 23.445C18.254 23.77 17.23 24.071 16 24.071C15.256 24.071 14.17 23.955 13 23.445V21.173L15.24 22.063C15.485 22.161 15.743 22.209 16 22.209C16.257 22.209 16.515 22.16 16.759 22.063L19 21.173V23.445ZM9.474 17.516L15.981 14.931C15.987 14.929 15.994 14.927 16.001 14.927C16.008 14.927 16.015 14.929 16.021 14.931L22.528 17.516V17.62L15.981 20.204L9.475 17.62V17.516H9.474Z" fill="#201C1C"/>
</svg>
