<svg width="16" height="17" viewBox="0 0 16 17" fill="none" xmlns="http://www.w3.org/2000/svg">
<path d="M3.1 2.09998H12.9V14.385C12.9 14.507 12.8502 14.6237 12.7373 14.7373C12.6237 14.8502 12.507 14.9 12.385 14.9H3.615C3.45929 14.9 3.33834 14.8509 3.24371 14.7563C3.14909 14.6616 3.1 14.5407 3.1 14.385V2.09998ZM2.40129 15.5987L2.40136 15.5988C2.7355 15.9322 3.14193 16.1 3.615 16.1H12.385C12.8699 16.1 13.2802 15.9362 13.6087 15.6077C13.9366 15.2798 14.1 14.8699 14.1 14.385V2.09998H15H15.1V1.99998V0.99998V0.89998H15H11.1V0.22998V0.12998H11H5H4.9V0.22998V0.89998H1H0.9V0.99998V1.99998V2.09998H1H1.9V14.385C1.9 14.8587 2.06776 15.2652 2.40129 15.5987ZM5.708 13V13.1H5.808H6.808H6.908V13V3.99998V3.89998H6.808H5.808H5.708V3.99998V13ZM9.092 13V13.1H9.192H10.192H10.292V13V3.99998V3.89998H10.192H9.192H9.092V3.99998V13Z" fill="white" stroke="white" stroke-width="0.2"/>
</svg>
