<svg width="17" height="17" viewBox="0 0 17 17" fill="none" xmlns="http://www.w3.org/2000/svg">
<path d="M1.5 13.207V15C1.5 15.1326 1.55268 15.2598 1.64645 15.3535C1.74021 15.4473 1.86739 15.5 2 15.5H3.793C3.92535 15.4999 4.05229 15.4474 4.146 15.354L12.646 6.85397L10.146 4.35397L1.646 12.854C1.55253 12.9477 1.50003 13.0746 1.5 13.207ZM12.09 2.40997L14.59 4.90997L15.793 3.70697C15.9805 3.51944 16.0858 3.26514 16.0858 2.99997C16.0858 2.73481 15.9805 2.4805 15.793 2.29297L14.707 1.20697C14.5195 1.0195 14.2652 0.914185 14 0.914185C13.7348 0.914185 13.4805 1.0195 13.293 1.20697L12.09 2.40997Z" stroke="white" stroke-width="1.5"/>
</svg>
