<svg width="32" height="32" viewBox="0 0 32 32" fill="none" xmlns="http://www.w3.org/2000/svg">
<path d="M27 3H25V2C25 1.447 24.553 1 24 1C23.447 1 23 1.447 23 2V3H9V2C9 1.447 8.553 1 8 1C7.447 1 7 1.447 7 2V3H5C3.346 3 2 4.346 2 6V27C2 28.654 3.346 30 5 30H27C28.654 30 30 28.654 30 27V6C30 4.346 28.654 3 27 3ZM28 27C28 27.552 27.552 28 27 28H5C4.448 28 4 27.552 4 27V11H28V27ZM28 9H4V6C4 5.448 4.448 5 5 5H7V6C7 6.553 7.447 7 8 7C8.553 7 9 6.553 9 6V5H23V6C23 6.553 23.447 7 24 7C24.553 7 25 6.553 25 6V5H27C27.552 5 28 5.448 28 6V9Z" fill="#201C1C"/>
<path d="M21 21H24C24.5523 21 25 21.4477 25 22V24.5C25 25.0523 24.5523 25.5 24 25.5H21C20.4477 25.5 20 25.0523 20 24.5V22C20 21.4477 20.4477 21 21 21Z" fill="#201C1C"/>
</svg>
