<svg width="24" height="24" viewBox="0 0 24 24" fill="none" xmlns="http://www.w3.org/2000/svg">
<path d="M3.93425 14.4273C5.71425 16.3437 8.81725 18.999 12.3472 18.999C15.8772 18.999 18.9813 16.3437 20.7603 14.4273C21.2303 13.9214 21.4653 13.669 21.6143 13.1717C21.7213 12.8175 21.7213 12.1826 21.6143 11.8284C21.4643 11.3322 21.2293 11.0787 20.7603 10.5728C18.9803 8.65635 15.8782 6 12.3472 6C8.81725 6 5.71325 8.65635 3.93425 10.5728C3.46425 11.0787 3.22925 11.3311 3.08025 11.8284C2.97325 12.1826 2.97325 12.8175 3.08025 13.1717C3.23025 13.6679 3.46425 13.9214 3.93425 14.4273Z" stroke="#9AA4B7" stroke-width="2" stroke-linecap="round" stroke-linejoin="round"/>
<path d="M10.3473 12.5001C10.3473 13.0747 10.558 13.6258 10.933 14.0321C11.3081 14.4385 11.8168 14.6667 12.3473 14.6667C12.8777 14.6667 13.3864 14.4385 13.7615 14.0321C14.1365 13.6258 14.3473 13.0747 14.3473 12.5001C14.3473 11.9254 14.1365 11.3743 13.7615 10.968C13.3864 10.5616 12.8777 10.3334 12.3473 10.3334C11.8168 10.3334 11.3081 10.5616 10.933 10.968C10.558 11.3743 10.3473 11.9254 10.3473 12.5001Z" stroke="#9AA4B7" stroke-width="2" stroke-linecap="round" stroke-linejoin="round"/>
</svg>
